<?xml version="1.0" standalone="no"?>
<!DOCTYPE svg PUBLIC "-//W3C//DTD SVG 20010904//EN"
 "http://www.w3.org/TR/2001/REC-SVG-20010904/DTD/svg10.dtd">
<svg version="1.0" xmlns="http://www.w3.org/2000/svg"
 width="300.000000pt" height="300.000000pt" viewBox="0 0 300.000000 300.000000"
 preserveAspectRatio="xMidYMid meet">
<metadata>
Created by potrace 1.11, written by Peter Selinger 2001-2013
</metadata>
<g transform="translate(0.000000,300.000000) scale(0.100000,-0.100000)"
fill="#000000" stroke="none">
<path d="M1418 2864 c-16 -20 -42 -44 -87 -83 -35 -29 -35 -30 -34 -109 1 -77
17 -132 55 -184 11 -15 8 -22 -16 -47 -25 -26 -26 -30 -11 -42 56 -47 59 -51
42 -64 -22 -16 -23 -65 -2 -65 31 0 12 -24 -48 -63 l-27 -17 0 42 c0 66 -9 73
-87 73 -68 0 -68 0 -71 29 -4 36 16 76 34 69 25 -10 64 25 64 57 0 34 -42 82
-65 74 -17 -7 -46 13 -44 30 3 29 -3 33 -48 32 -45 -1 -48 -3 -53 -31 -4 -23
-10 -29 -25 -27 -39 6 -104 99 -120 170 -3 17 -10 32 -15 32 -11 0 -67 -65
-84 -98 -30 -58 -40 -138 -27 -209 7 -36 19 -79 27 -95 l15 -29 -63 2 c-64 2
-103 15 -132 45 -27 26 -32 -10 -7 -52 l21 -36 -65 5 c-55 5 -73 11 -115 42
-42 31 -51 34 -56 21 -6 -17 -2 -48 11 -78 5 -12 -1 -21 -24 -33 -17 -8 -31
-20 -31 -25 0 -11 40 -26 76 -29 10 -1 14 -7 10 -17 -3 -9 -9 -27 -12 -41 -6
-24 -5 -24 32 -17 22 3 43 10 49 15 14 13 25 11 25 -5 0 -8 -11 -17 -25 -20
-38 -10 -59 -49 -52 -99 5 -35 3 -45 -12 -54 -22 -14 -32 -69 -18 -100 7 -17
5 -26 -12 -45 -18 -18 -22 -33 -19 -69 2 -33 -2 -52 -14 -66 -21 -23 -30 -70
-18 -93 6 -12 4 -21 -9 -32 -22 -19 -37 -86 -22 -101 6 -6 3 -18 -10 -36 -24
-33 -33 -76 -20 -99 7 -13 4 -23 -12 -40 -17 -18 -22 -36 -22 -76 0 -29 -6
-60 -12 -68 -7 -8 -10 -18 -6 -21 3 -4 1 -7 -6 -7 -9 0 -12 -13 -10 -42 3 -29
-2 -52 -14 -69 -9 -14 -19 -40 -21 -58 -2 -18 -9 -38 -15 -44 -14 -14 -14 -60
-1 -73 7 -7 4 -20 -12 -39 -48 -62 -28 -85 75 -85 51 0 70 -5 93 -22 45 -35
55 -51 50 -80 -7 -37 60 -98 108 -98 44 0 97 48 90 83 -3 19 6 35 37 66 23 22
45 38 50 35 5 -3 9 0 9 5 0 7 27 11 68 11 87 0 94 5 77 54 -10 27 -11 46 -4
64 10 25 -4 82 -20 82 -4 0 -6 13 -3 29 3 20 -3 40 -18 61 -18 25 -19 34 -10
45 16 19 6 69 -20 102 -14 19 -17 29 -10 38 13 16 4 74 -15 95 -9 10 -13 32
-10 62 3 36 -1 53 -16 72 -17 21 -18 31 -11 60 7 23 6 38 -1 45 -6 6 -7 11 -2
11 5 0 -2 11 -15 25 -18 20 -21 28 -12 37 19 19 14 63 -9 92 -19 24 -20 30 -8
57 l12 31 32 -84 c49 -129 95 -210 200 -353 l52 -70 -2 -108 c0 -60 3 -111 7
-113 5 -3 5 -11 1 -17 -11 -17 -12 -159 -1 -179 7 -14 20 -17 71 -16 61 2 62
2 65 -25 2 -17 -2 -28 -10 -29 -7 0 -17 -2 -23 -3 -5 -2 -26 -3 -45 -4 -37 -2
-32 4 -154 -169 l-30 -42 32 -33 c18 -18 32 -35 32 -37 0 -3 -104 -5 -231 -5
-127 0 -234 -2 -238 -5 -4 -3 -34 -49 -66 -103 -46 -77 -56 -103 -49 -115 20
-32 129 -81 210 -95 112 -19 165 -3 169 49 2 16 3 34 4 39 1 6 85 10 233 9
128 0 241 3 250 8 14 7 102 129 142 195 4 7 -1 21 -11 31 -55 56 -72 52 238
52 l284 -1 -39 -33 c-26 -23 -36 -38 -31 -47 20 -35 148 -198 158 -201 7 -3
119 -4 249 -3 l237 0 6 -32 c8 -46 42 -65 113 -65 64 0 197 46 246 85 l29 23
-68 107 -67 107 -246 0 -247 1 38 30 c20 17 37 35 37 41 0 18 -124 190 -152
211 -15 11 -28 29 -28 39 0 10 -4 18 -10 18 -5 0 -12 11 -16 25 -4 18 2 34 25
64 34 43 40 75 14 89 -13 8 -16 27 -17 103 l-1 93 45 49 c157 170 288 419 326
621 l7 39 18 -24 c17 -22 17 -24 -7 -52 -26 -31 -32 -85 -12 -105 10 -10 8
-15 -9 -27 -24 -17 -38 -77 -24 -103 7 -12 5 -22 -5 -33 -25 -28 -34 -75 -18
-98 12 -17 12 -21 1 -28 -32 -19 -51 -103 -26 -118 7 -5 4 -14 -8 -29 -22 -25
-30 -81 -13 -101 8 -10 6 -18 -9 -32 -24 -23 -38 -88 -21 -107 9 -12 7 -19 -9
-35 -20 -20 -25 -37 -22 -72 1 -8 -5 -28 -13 -43 -12 -24 -12 -31 2 -56 15
-25 15 -30 -1 -53 -19 -29 -22 -63 -7 -72 5 -3 43 -7 85 -9 80 -4 113 -18 141
-61 9 -14 14 -34 11 -45 -4 -14 3 -29 21 -46 64 -60 113 -65 163 -18 22 21 28
34 25 59 -3 23 3 39 22 61 38 41 68 53 133 52 30 -1 62 1 71 5 21 7 13 43 -15
74 -17 19 -18 26 -8 52 13 29 3 66 -20 81 -4 3 -9 23 -11 43 -1 21 -9 42 -17
47 -9 5 -15 27 -16 64 -1 31 -9 63 -16 72 -8 10 -14 40 -14 70 0 40 -5 58 -22
76 -16 17 -19 27 -12 40 14 26 0 86 -24 103 -15 11 -18 17 -9 28 17 20 3 85
-21 102 -17 12 -19 18 -10 37 11 25 -3 83 -23 96 -6 4 -10 31 -10 60 1 43 -3
57 -20 71 -12 10 -19 25 -17 36 11 52 6 89 -14 104 -16 13 -18 22 -11 41 18
49 -17 120 -59 120 -7 0 -13 9 -13 20 0 23 0 23 37 9 31 -13 73 -20 73 -13 0
3 -7 18 -15 34 l-15 28 40 14 c49 16 54 29 17 46 -27 13 -27 15 -12 32 17 19
23 69 11 89 -5 7 -17 1 -37 -19 -32 -31 -111 -60 -166 -60 -38 0 -39 2 -17 35
11 16 14 34 10 51 l-7 27 -22 -21 c-22 -20 -54 -31 -157 -52 -67 -13 -112 -43
-139 -90 -24 -42 -21 -81 8 -120 26 -35 26 -39 4 -35 -10 2 -26 4 -35 4 -15 1
-18 11 -18 70 0 46 5 72 14 80 10 8 12 21 6 47 -6 24 -4 44 6 62 17 33 18 61
3 99 -6 15 -13 39 -15 53 -6 31 -42 106 -69 141 -11 15 -29 38 -39 53 -10 14
-22 26 -27 26 -16 0 -98 -86 -113 -120 -9 -19 -20 -42 -25 -50 -14 -23 -41
-124 -41 -153 0 -14 6 -38 12 -53 10 -22 10 -28 0 -32 -14 -4 -16 -68 -2 -77
11 -7 14 -55 3 -55 -9 0 -93 49 -121 71 -13 10 -18 20 -12 24 15 10 12 55 -5
61 -23 9 -18 29 16 62 30 29 32 52 5 52 -8 0 -19 7 -26 15 -9 11 -7 25 14 67
33 68 46 177 30 247 -15 66 -28 79 -84 84 -25 2 -55 9 -68 16 -15 8 -28 9 -39
2 -10 -5 -26 -5 -40 0 -17 6 -26 4 -35 -7z m42 -33 c0 -5 -9 -7 -20 -4 -11 3
-20 7 -20 9 0 2 9 4 20 4 11 0 20 -4 20 -9z m-73 -50 c-1 -15 -4 -17 -14 -9
-17 14 -16 28 1 28 8 0 14 -9 13 -19z m153 -15 c0 -2 -11 -6 -25 -8 -14 -3
-25 -1 -25 3 0 5 11 9 25 9 14 0 25 -2 25 -4z m3 -31 c3 -6 -10 -10 -29 -10
-34 0 -45 9 -21 18 20 7 46 4 50 -8z m-188 -15 c3 -6 -4 -10 -17 -10 -18 0
-20 2 -8 10 19 12 18 12 25 0z m-524 -79 c-17 -29 -31 -56 -31 -61 0 -6 -6
-10 -14 -10 -19 0 -10 33 27 93 18 30 33 45 39 39 6 -6 -3 -29 -21 -61z m609
59 c0 -5 -2 -10 -4 -10 -3 0 -8 5 -11 10 -3 6 -1 10 4 10 6 0 11 -4 11 -10z
m91 -23 c-8 -8 -11 -7 -11 4 0 20 13 34 18 19 3 -7 -1 -17 -7 -23z m-158 9
c10 -10 17 -12 25 -4 6 6 15 7 22 3 8 -5 6 -11 -7 -20 -15 -11 -21 -11 -34 1
-19 17 -41 18 -57 2 -9 -9 -12 -8 -12 4 0 14 12 22 42 27 4 0 13 -5 21 -13z
m107 5 c0 -12 -20 -25 -27 -18 -7 7 6 27 18 27 5 0 9 -4 9 -9z m120 -9 c0 -13
-12 -22 -22 -16 -10 6 -1 24 13 24 5 0 9 -4 9 -8z m-247 -37 c-5 -16 -33 -21
-33 -7 0 13 22 32 31 26 5 -2 6 -11 2 -19z m180 -7 c9 -14 15 -17 14 -8 -1 8
3 16 8 18 6 1 10 -6 11 -15 1 -10 4 -27 8 -39 6 -21 1 -22 -91 -15 -7 1 -10 8
-7 16 5 11 -1 15 -26 15 -17 0 -29 3 -26 8 2 4 23 7 45 6 23 0 41 3 41 9 0 5
-7 7 -15 3 -8 -3 -15 -1 -15 3 0 9 15 18 31 20 4 1 13 -9 22 -21z m-68 2 c-3
-5 -10 -10 -16 -10 -5 0 -9 5 -9 10 0 6 7 10 16 10 8 0 12 -4 9 -10z m-59 -37
c3 -15 -6 -27 -28 -41 -18 -12 -36 -18 -41 -15 -5 3 -3 9 4 13 7 5 14 16 15
25 3 22 25 46 37 42 6 -2 12 -13 13 -24z m-66 -5 c0 -13 -23 -5 -28 10 -2 7 2
10 12 6 9 -3 16 -11 16 -16z m238 -42 c3 -3 -18 -6 -47 -6 -29 0 -50 4 -47 9
6 10 84 7 94 -3z m-788 -21 c0 -15 -6 -25 -14 -25 -8 0 -13 8 -11 18 2 9 4 20
4 25 2 20 21 4 21 -18z m587 -12 c-9 -9 -19 -14 -23 -11 -10 10 6 28 24 28 15
0 15 -1 -1 -17z m206 4 c-2 -4 -5 -7 -8 -7 -3 0 -9 0 -15 0 -5 0 -10 4 -10 9
0 5 8 8 18 7 9 -2 16 -6 15 -9z m-543 -12 c0 -8 -7 -15 -15 -15 -26 0 -18 20
13 29 1 1 2 -6 2 -14z m-50 -16 c0 -5 -4 -9 -10 -9 -5 0 -10 7 -10 16 0 8 5
12 10 9 6 -3 10 -10 10 -16z m400 1 c0 -5 -4 -10 -10 -10 -5 0 -10 5 -10 10 0
6 5 10 10 10 6 0 10 -4 10 -10z m200 -41 c0 -12 -23 -14 -119 -14 -58 0 -96 4
-98 11 -2 7 32 10 107 10 60 0 110 -4 110 -7z m-580 -69 c21 -21 27 -65 9 -75
-5 -4 -32 -7 -59 -7 -47 1 -78 -16 -67 -36 3 -4 2 -13 -2 -20 -5 -9 -13 -6
-29 11 l-22 23 28 38 c26 34 94 86 115 86 4 0 16 -9 27 -20z m405 -10 c3 -5
-3 -10 -15 -10 -12 0 -18 5 -15 10 3 6 10 10 15 10 5 0 12 -4 15 -10z m121 -2
c4 -5 -19 -8 -52 -8 -32 0 -53 4 -47 8 16 10 89 9 99 0z m-116 -38 c0 -5 -7
-10 -15 -10 -8 0 -15 5 -15 10 0 6 7 10 15 10 8 0 15 -4 15 -10z m120 0 c0 -5
-25 -10 -55 -10 -30 0 -55 5 -55 10 0 6 25 10 55 10 30 0 55 -4 55 -10z m-155
-58 c-3 -4 -10 0 -15 8 -6 9 -5 17 3 22 13 8 24 -19 12 -30z m130 18 c0 -15
-32 -23 -41 -9 -3 5 -3 13 0 18 9 14 41 6 41 -9z m295 -30 c0 -19 -11 -26 -23
-14 -8 8 3 34 14 34 5 0 9 -9 9 -20z m-392 -40 c-12 -11 -29 -19 -35 -20 -7 0
-13 -4 -13 -9 0 -10 -75 -61 -90 -61 -21 0 -9 19 25 40 19 12 39 19 45 15 5
-3 8 0 5 7 -3 7 13 24 37 40 46 29 65 20 26 -12z m-627 -20 l24 -20 -31 6
c-63 12 -95 -56 -53 -110 l20 -26 -23 0 c-36 0 -43 11 -46 71 -3 67 12 86 79
98 4 0 17 -8 30 -19z m1535 -36 c4 -14 2 -35 -4 -47 -10 -20 -11 -19 -11 14
-1 20 -8 42 -16 49 -22 18 -18 33 5 20 11 -6 23 -22 26 -36z m-1368 12 c20
-13 65 -34 100 -47 34 -13 62 -27 62 -30 0 -3 -31 -10 -69 -16 -60 -8 -75 -6
-105 9 -33 17 -36 22 -36 63 0 25 2 45 5 45 3 0 22 -11 43 -24z m872 10 c0 -8
3 -21 6 -30 3 -9 1 -16 -5 -16 -13 0 -31 41 -24 53 7 12 23 8 23 -7z m-570
-61 c0 -8 -7 -15 -15 -15 -26 0 -18 20 13 29 1 1 2 -6 2 -14z m-51 -35 c-7 -5
-17 -6 -21 -4 -4 3 -8 1 -8 -3 0 -12 -99 -47 -107 -39 -9 8 -7 10 72 44 42 19
71 27 74 20 2 -6 -3 -14 -10 -18z m321 15 c10 -12 7 -15 -14 -21 -14 -3 -26
-12 -26 -20 0 -21 -17 -17 -23 6 -6 22 16 50 37 50 8 0 19 -7 26 -15z m915 1
c16 -12 17 -16 6 -30 -18 -22 -24 -20 -37 9 -17 36 -2 46 31 21z m-1845 -8 c0
-24 -16 -39 -34 -32 -16 6 -16 8 0 25 20 22 34 25 34 7z m290 -38 c0 -11 -7
-20 -15 -20 -18 0 -19 12 -3 28 16 16 18 15 18 -8z m1497 -12 c-35 -10 -49 -9
-45 4 2 6 12 12 22 14 10 1 20 5 24 8 3 4 9 1 14 -6 5 -9 0 -15 -15 -20z m91
10 c-3 -7 -13 -15 -24 -17 -16 -3 -17 -1 -5 13 16 19 34 21 29 4z m-1984 -13
c-7 -17 -20 -20 -28 -6 -7 10 3 21 20 21 8 0 11 -6 8 -15z m136 5 c0 -5 -4
-10 -9 -10 -6 0 -13 5 -16 10 -3 6 1 10 9 10 9 0 16 -4 16 -10z m430 -5 c0 -8
-7 -15 -15 -15 -26 0 -18 20 13 29 1 1 2 -6 2 -14z m1260 -2 c0 -7 -9 -13 -20
-13 -19 0 -26 11 -15 22 10 10 35 4 35 -9z m-1300 -8 c0 -8 -7 -15 -15 -15
-26 0 -18 20 13 29 1 1 2 -6 2 -14z m-130 -22 c0 -9 -13 -13 -40 -13 -54 0
-54 25 0 26 27 0 40 -4 40 -13z m570 -4 c11 -8 12 -12 2 -16 -7 -2 -19 -11
-26 -19 -19 -18 -36 -18 -36 0 0 15 26 46 38 46 4 0 14 -5 22 -11z m135 1 c6
-10 -23 -47 -34 -43 -3 0 -5 -3 -3 -8 1 -5 -2 -9 -8 -9 -5 0 -10 2 -10 4 0 2
-3 11 -6 19 -10 28 45 62 61 37z m841 -79 c-11 -17 -25 -13 -21 7 2 9 4 19 4
22 1 2 6 -1 12 -7 6 -6 8 -16 5 -22z m-1841 -29 c-8 -9 -25 20 -18 31 3 5 10
2 15 -7 6 -10 7 -20 3 -24z m789 12 c9 -3 16 -13 16 -21 0 -8 -4 -11 -10 -8
-5 3 -10 1 -10 -4 0 -6 -6 -10 -12 -8 -7 1 -12 -4 -10 -10 3 -18 -17 -16 -25
2 -3 9 3 25 12 35 21 23 18 22 39 14z m281 -3 c5 -9 -44 -51 -59 -51 -11 0 -6
36 6 48 14 14 44 16 53 3z m925 -37 c0 -8 -4 -14 -9 -14 -11 0 -22 26 -14 34
9 9 23 -3 23 -20z m-2147 -5 c-4 -13 -9 -17 -15 -11 -11 11 -3 32 12 32 4 0 6
-9 3 -21z m2019 6 c0 -5 -5 -11 -11 -13 -6 -2 -11 4 -11 13 0 9 5 15 11 13 6
-2 11 -8 11 -13z m-1892 -10 c0 -8 -4 -15 -9 -15 -13 0 -22 16 -14 24 11 11
23 6 23 -9z m1960 0 c0 -8 -4 -15 -10 -15 -5 0 -10 7 -10 15 0 8 5 15 10 15 6
0 10 -7 10 -15z m-2025 -5 c3 -5 1 -10 -4 -10 -6 0 -11 5 -11 10 0 6 2 10 4
10 3 0 8 -4 11 -10z m111 -55 c3 -20 4 -38 1 -41 -10 -10 -38 43 -31 60 10 26
23 18 30 -19z m849 25 c3 -5 1 -10 -4 -10 -6 0 -11 5 -11 10 0 6 2 10 4 10 3
0 8 -4 11 -10z m100 0 c3 -5 -1 -10 -10 -10 -9 0 -13 5 -10 10 3 6 8 10 10 10
2 0 7 -4 10 -10z m-1010 -48 c-10 -44 -5 -96 10 -108 11 -8 13 -24 9 -60 -5
-41 -2 -53 15 -73 16 -18 18 -27 10 -37 -15 -18 -1 -94 17 -101 11 -4 13 -16
8 -50 -5 -37 -3 -50 16 -75 17 -23 20 -35 13 -52 -14 -30 -5 -77 19 -103 17
-18 19 -25 8 -38 -15 -18 -6 -78 16 -96 11 -9 13 -23 9 -49 -3 -20 -2 -47 3
-61 8 -19 6 -31 -8 -49 l-19 -25 -23 21 c-13 11 -35 28 -50 37 -16 10 -28 24
-28 31 0 8 -5 16 -12 18 -7 3 -8 9 -3 18 14 23 5 100 -16 134 -10 17 -19 27
-19 21 0 -5 -5 -3 -10 6 -6 10 -6 28 -1 47 7 23 5 39 -9 64 -15 28 -16 37 -5
59 14 26 14 56 1 97 -4 13 -3 29 3 36 10 12 9 67 -3 97 -4 8 0 28 8 43 10 21
12 36 4 59 -15 51 -15 60 -1 86 17 33 17 62 -1 86 -21 28 -1 68 26 54 15 -8
18 -17 13 -37z m1943 32 c8 -15 -5 -64 -18 -64 -3 0 -11 12 -17 27 -19 40 14
74 35 37z m82 -17 c0 -7 -5 -19 -10 -27 -8 -13 -11 -12 -24 5 -27 35 -17 62
15 44 11 -5 19 -15 19 -22z m-2103 15 c9 -6 9 -15 -3 -37 -19 -35 -20 -80 -3
-112 10 -19 9 -26 -4 -41 -20 -22 -23 -88 -4 -95 9 -3 8 -11 -4 -33 -18 -33
-17 -87 2 -111 11 -12 11 -17 -2 -27 -21 -15 -25 -94 -5 -102 14 -5 14 -10 1
-41 -8 -19 -13 -39 -10 -43 3 -5 1 -12 -5 -15 -8 -5 -8 -11 -1 -19 12 -15 3
-56 -13 -56 -21 0 -46 -64 -50 -128 -4 -60 -17 -92 -39 -92 -5 0 -25 -12 -44
-26 -39 -30 -47 -27 -46 19 3 102 9 133 25 145 13 10 16 25 14 70 -3 47 0 59
15 70 11 7 17 17 14 22 -3 5 -1 19 4 32 6 15 5 31 -1 42 -7 13 -5 22 6 35 24
26 35 72 24 100 -6 19 -4 29 11 45 14 16 19 33 17 70 -1 35 3 55 17 73 15 18
18 33 13 62 -4 30 -1 43 14 61 15 17 18 33 16 68 -5 68 7 86 41 64z m853 -17
c0 -8 -9 -17 -20 -20 -11 -3 -20 -11 -20 -16 0 -5 -4 -9 -10 -9 -17 0 -11 42
7 55 20 15 43 9 43 -10z m208 4 c2 -11 -4 -15 -20 -13 -13 1 -31 3 -42 3 -15
1 -16 3 -6 17 17 19 64 14 68 -7z m192 -5 c0 -8 -7 -14 -15 -14 -7 0 -19 -8
-24 -17 -9 -15 -12 -16 -20 -4 -12 19 -3 41 23 51 25 9 36 4 36 -16z m-196
-39 c-11 -28 -58 -24 -60 5 -1 12 7 15 32 12 22 -3 31 -8 28 -17z m909 -10 c7
-16 -8 -29 -23 -20 -10 6 -2 35 10 35 4 0 10 -7 13 -15z m177 -11 c0 -8 -4
-14 -9 -14 -11 0 -22 26 -14 34 9 9 23 -3 23 -20z m-2207 -9 c-3 -8 -9 -15
-14 -15 -10 0 -12 24 -3 33 11 11 24 -3 17 -18z m94 -3 c2 -16 -2 -22 -15 -22
-16 0 -21 17 -13 48 3 13 25 -8 28 -26z m87 12 c7 -19 -2 -37 -15 -29 -12 8
-12 45 0 45 5 0 12 -7 15 -16z m1939 2 c6 -15 -1 -26 -15 -26 -4 0 -8 9 -8 20
0 23 15 27 23 6z m-50 -26 c-3 -12 1 -22 11 -26 18 -7 21 -35 5 -51 -14 -14
-14 -90 0 -107 8 -10 7 -21 -3 -41 -16 -30 -12 -72 9 -95 11 -13 11 -18 0 -34
-19 -25 -16 -84 4 -96 13 -7 13 -12 3 -32 -7 -13 -15 -45 -17 -72 -2 -31 -10
-52 -22 -61 -10 -8 -14 -15 -10 -15 4 0 2 -10 -5 -22 -13 -25 -18 -107 -7
-114 9 -5 -19 -64 -30 -64 -4 0 -26 -16 -50 -36 -23 -20 -43 -35 -44 -33 -18
26 -25 62 -17 86 10 30 9 50 -3 70 -4 7 1 20 13 31 24 22 32 78 16 104 -8 13
-5 23 13 42 20 21 23 32 18 72 -4 37 -1 53 15 74 18 25 20 63 3 90 -4 6 3 18
15 28 21 17 31 77 16 100 -4 6 0 22 8 34 20 31 29 87 16 103 -8 9 -4 22 12 48
26 40 39 47 31 17z m97 -5 c0 -8 9 -19 20 -25 16 -9 18 -15 10 -30 -16 -29
-12 -68 8 -88 14 -14 18 -33 18 -71 -1 -44 3 -55 23 -70 20 -15 22 -21 12 -39
-15 -28 -3 -79 22 -97 18 -13 19 -17 8 -39 -15 -28 -4 -76 26 -108 14 -16 15
-23 5 -38 -16 -26 -16 -29 10 -70 21 -33 29 -79 29 -164 -1 -22 -3 -41 -5 -44
-3 -2 -26 12 -52 32 -26 20 -51 36 -55 36 -5 0 -9 6 -9 14 0 8 -5 16 -11 18
-9 3 -9 10 0 26 10 18 9 23 -4 28 -10 4 -13 13 -10 25 8 25 -12 86 -32 98 -10
5 -16 25 -17 57 -1 27 -9 59 -16 71 -12 18 -12 25 -2 35 16 16 16 73 0 98 -10
15 -10 22 0 32 17 17 15 78 -4 100 -13 13 -14 21 -5 31 16 20 17 77 1 110 -11
22 -11 33 -2 48 7 10 12 26 12 34 0 9 5 13 10 10 6 -3 10 -13 10 -20z m-785 5
c7 -12 -33 -49 -52 -50 -18 0 -16 25 3 44 18 18 40 21 49 6z m-527 -19 c3 -8
0 -11 -7 -7 -6 4 -11 2 -11 -4 0 -6 -5 -8 -10 -5 -6 3 -13 -1 -16 -9 -3 -9
-10 -16 -15 -16 -14 0 -11 48 4 54 21 8 50 2 55 -13z m295 -80 c21 -13 36 -26
33 -29 -8 -7 -176 -8 -176 0 0 13 85 66 95 59 6 -3 27 -17 48 -30z m857 -6 c0
-8 -7 -15 -15 -15 -16 0 -20 12 -8 23 11 12 23 8 23 -8z m234 0 c3 -9 0 -15
-9 -15 -8 0 -15 7 -15 15 0 8 4 15 9 15 5 0 11 -7 15 -15z m-2273 -18 c-13
-13 -26 -3 -16 12 3 6 11 8 17 5 6 -4 6 -10 -1 -17z m239 2 c0 -18 -2 -19 -15
-9 -15 12 -12 30 6 30 5 0 9 -10 9 -21z m580 6 c10 -12 10 -15 -3 -15 -8 0
-20 -7 -27 -15 -17 -20 -30 -19 -30 3 0 37 38 54 60 27z m654 9 c20 -8 21 -24
2 -24 -8 0 -22 -7 -30 -16 -15 -15 -36 -12 -36 6 0 11 29 40 40 40 5 0 15 -3
24 -6z m679 -31 c-4 -10 -9 -11 -16 -4 -5 5 -7 18 -3 28 6 14 9 15 16 4 4 -8
6 -21 3 -28z m-2039 -4 c-3 -5 -10 -7 -15 -3 -5 3 -7 10 -3 15 3 5 10 7 15 3
5 -3 7 -10 3 -15z m911 1 c4 -6 -6 -10 -22 -10 -22 0 -25 2 -13 10 19 12 27
12 35 0z m250 0 c3 -5 -3 -10 -14 -10 -12 0 -21 5 -21 10 0 6 6 10 14 10 8 0
18 -4 21 -10z m-169 -58 c-2 -15 -4 -30 -5 -34 0 -5 -5 -8 -10 -8 -10 0 -12
58 -4 73 9 16 22 -5 19 -31z m82 -8 c-4 -39 -24 -41 -22 -2 3 52 3 53 15 41 6
-6 9 -23 7 -39z m-158 1 c0 -19 -4 -35 -10 -35 -5 0 -10 16 -10 35 0 19 5 35
10 35 6 0 10 -16 10 -35z m230 0 c0 -19 -4 -35 -10 -35 -5 0 -10 16 -10 35 0
19 5 35 10 35 6 0 10 -16 10 -35z m300 20 c0 -8 -7 -15 -15 -15 -16 0 -20 12
-8 23 11 12 23 8 23 -8z m-680 -39 c0 -6 -13 -18 -29 -28 -25 -14 -30 -14 -35
-2 -7 19 29 55 49 48 8 -4 15 -11 15 -18z m540 9 c10 -12 10 -15 -3 -15 -9 0
-23 -7 -31 -16 -17 -16 -36 -11 -36 10 0 33 48 48 70 21z m-353 -10 c0 -8 -4
-15 -8 -15 -11 0 -20 16 -12 24 11 11 20 7 20 -9z m83 0 c0 -8 -7 -15 -15 -15
-8 0 -15 7 -15 15 0 8 7 15 15 15 8 0 15 -7 15 -15z m70 0 c0 -8 -4 -15 -10
-15 -5 0 -10 7 -10 15 0 8 5 15 10 15 6 0 10 -7 10 -15z m305 -14 c-3 -12 -11
-21 -16 -21 -5 0 -9 -6 -9 -13 0 -7 -9 -20 -20 -30 -11 -9 -20 -23 -20 -31 0
-8 -6 -19 -13 -23 -7 -4 -18 -20 -24 -35 -7 -16 -19 -28 -28 -28 -12 0 -10 9
11 43 89 142 139 199 119 138z m785 -3 c0 -5 -7 -8 -15 -8 -15 0 -20 21 -8 33
7 7 23 -11 23 -25z m-2335 -1 c0 -9 -3 -17 -7 -17 -5 0 -12 0 -17 0 -5 0 -7 9
-4 20 6 24 28 21 28 -3z m289 -3 c7 -19 -2 -37 -15 -29 -12 8 -12 45 0 45 5 0
12 -7 15 -16z m1748 1 c0 -5 -5 -11 -11 -13 -6 -2 -11 4 -11 13 0 9 5 15 11
13 6 -2 11 -8 11 -13z m-1899 -19 c6 -16 -2 -28 -14 -20 -12 7 -11 34 0 34 5
0 11 -6 14 -14z m1144 1 c3 -4 -53 -7 -125 -7 -73 0 -132 4 -132 8 0 10 247 8
257 -1z m903 -2 c0 -8 -4 -15 -9 -15 -13 0 -22 16 -14 24 11 11 23 6 23 -9z
m-1270 -4 c0 -5 -6 -11 -13 -14 -8 -3 -14 1 -14 9 0 8 6 14 14 14 7 0 13 -4
13 -9z m460 -41 c13 -9 13 -11 0 -20 -8 -5 -21 -10 -27 -10 -7 0 -13 -7 -13
-16 0 -9 -6 -14 -12 -11 -12 3 -14 14 -9 46 1 8 14 14 41 20 3 0 12 -4 20 -9z
m-396 -16 c3 -8 2 -12 -4 -9 -6 3 -10 1 -10 -5 0 -6 -4 -9 -9 -5 -6 3 -14 -3
-20 -12 -15 -28 -37 -2 -22 26 14 25 56 28 65 5z m1036 -49 c0 -8 -7 -15 -15
-15 -16 0 -20 12 -8 23 11 12 23 8 23 -8z m350 5 c0 -5 -7 -10 -16 -10 -8 0
-12 5 -9 10 3 6 10 10 16 10 5 0 9 -4 9 -10z m-2396 -15 c-4 -8 -10 -15 -15
-15 -5 0 -9 7 -9 15 0 8 7 15 15 15 9 0 12 -6 9 -15z m346 -5 c0 -11 -4 -20
-9 -20 -11 0 -22 26 -14 34 12 12 23 5 23 -14z m1872 -5 c0 -5 -5 -11 -11 -13
-6 -2 -11 4 -11 13 0 9 5 15 11 13 6 -2 11 -8 11 -13z m-2052 -15 c0 -11 -6
-20 -13 -20 -7 0 -13 9 -14 20 -1 11 4 20 13 20 8 0 14 -9 14 -20z m1164 4
c22 -8 20 -21 -4 -29 -11 -3 -20 -13 -20 -21 0 -8 -4 -14 -10 -14 -5 0 -10 2
-10 4 0 2 -3 11 -6 19 -3 8 2 22 11 31 19 18 18 18 39 10z m-261 -16 c3 -11
-42 -48 -58 -48 -10 0 -5 36 7 48 16 16 45 15 51 0z m367 -27 c0 -4 -8 -19
-18 -32 -10 -13 -21 -32 -25 -41 -3 -10 -13 -18 -22 -18 -11 0 -7 12 16 50 28
46 49 63 49 41z m580 -75 c-14 -14 -24 0 -16 21 6 15 8 15 16 3 6 -9 5 -19 0
-24z m408 11 c5 -24 -15 -21 -21 4 -3 13 -1 19 6 16 7 -2 13 -11 15 -20z
m-2455 7 c9 -9 -4 -34 -18 -34 -8 0 -11 8 -8 20 5 20 15 25 26 14z m403 -31
c-6 -14 -9 -15 -16 -4 -11 19 -1 46 13 32 5 -5 7 -18 3 -28z m904 27 c13 -9
13 -11 0 -20 -8 -5 -21 -10 -27 -10 -7 0 -13 -4 -13 -10 0 -5 -4 -10 -10 -10
-14 0 -13 33 2 48 14 14 28 15 48 2z m-136 -15 c3 -9 0 -15 -9 -15 -7 0 -21
-7 -30 -17 -14 -13 -18 -14 -25 -3 -13 21 7 50 34 50 13 0 26 -7 30 -15z
m1077 -18 c-13 -13 -26 -3 -16 12 3 6 11 8 17 5 6 -4 6 -10 -1 -17z m-2047 -2
c3 -9 0 -15 -9 -15 -8 0 -15 7 -15 15 0 8 4 15 9 15 5 0 11 -7 15 -15z m1186
-29 c0 -7 -11 -25 -24 -39 -14 -15 -27 -36 -31 -47 -3 -11 -11 -20 -16 -20 -6
0 -15 -13 -20 -30 -6 -16 -15 -30 -20 -30 -5 0 -9 -6 -9 -13 0 -14 -35 -47
-50 -47 -14 0 -12 20 3 25 6 3 43 52 81 110 67 100 86 121 86 91z m-153 -52
c2 -6 -8 -16 -21 -24 -14 -7 -23 -17 -20 -22 3 -4 0 -8 -5 -8 -6 0 -11 2 -11
4 0 2 -3 11 -6 19 -3 8 2 22 12 31 17 18 45 18 51 0z m785 -46 c-13 -13 -26 8
-17 30 6 16 7 16 17 -1 7 -13 7 -22 0 -29z m463 12 c-6 -9 -9 -9 -16 1 -10 17
0 34 13 21 6 -6 7 -16 3 -22z m-2049 -27 c-12 -12 -29 15 -21 34 7 17 8 16 18
-5 5 -12 7 -25 3 -29z m-466 22 c0 -8 -4 -15 -9 -15 -13 0 -22 16 -14 24 11
11 23 6 23 -9z m822 0 c0 -5 -5 -11 -11 -13 -6 -2 -11 4 -11 13 0 9 5 15 11
13 6 -2 11 -8 11 -13z m788 -45 c0 -5 -5 -10 -11 -10 -5 0 -7 5 -4 10 3 6 8
10 11 10 2 0 4 -4 4 -10z m-53 -48 c-24 -26 -21 -39 13 -82 17 -21 30 -45 30
-53 0 -12 -22 -63 -38 -87 -2 -3 -150 -6 -328 -7 l-324 -1 0 32 0 33 51 -1
c63 -2 83 12 85 55 1 19 2 36 3 37 1 2 27 -11 59 -29 31 -17 72 -41 91 -51
l34 -19 51 25 c28 14 101 57 161 95 113 72 141 85 112 53z m18 -50 c-12 -13
-24 22 -12 37 10 12 13 11 15 -8 2 -13 1 -26 -3 -29z m452 12 c-9 -9 -28 6
-21 18 4 6 10 6 17 -1 6 -6 8 -13 4 -17z m-1537 -2 c0 -13 -12 -22 -22 -16
-10 6 -1 24 13 24 5 0 9 -4 9 -8z m1120 -38 c0 -2 -7 -4 -15 -4 -8 0 -15 4
-15 10 0 5 7 7 15 4 8 -4 15 -8 15 -10z m19 -43 c-15 -5 -22 6 -14 19 6 9 10
9 16 -1 5 -8 4 -15 -2 -18z m-19 -95 c0 -3 -4 -8 -10 -11 -5 -3 -10 -1 -10 4
0 6 5 11 10 11 6 0 10 -2 10 -4z m75 -6 c-3 -5 -12 -7 -20 -3 -21 7 -19 13 6
13 11 0 18 -4 14 -10z m-685 -48 c0 -4 -9 -13 -20 -20 -17 -10 -20 -10 -20 2
0 8 8 17 18 19 9 3 18 5 20 6 1 0 2 -2 2 -7z m80 -4 c0 -4 -18 -31 -40 -60
-22 -29 -35 -54 -30 -56 23 -8 7 -22 -25 -22 -19 0 -35 3 -35 7 0 3 19 31 43
61 27 36 38 57 30 59 -26 9 -12 20 22 19 19 0 35 -4 35 -8z m135 -63 c0 -68
-2 -75 -20 -75 -18 0 -20 7 -20 75 0 68 2 75 20 75 18 0 20 -7 20 -75z m70 61
c12 -9 16 -20 12 -36 -3 -12 0 -31 6 -41 15 -24 -1 -53 -32 -57 -25 -4 -27 6
-4 23 15 11 14 14 -5 33 -26 26 -27 32 -7 32 17 0 20 25 5 35 -12 7 -13 25 -2
25 5 0 16 -6 27 -14z m135 5 c0 -5 -7 -12 -16 -15 -22 -9 -24 -8 -24 9 0 8 9
15 20 15 11 0 20 -4 20 -9z m62 -13 c-9 -26 -8 -84 2 -109 6 -12 0 -16 -24
-17 -26 -1 -30 2 -25 16 14 31 17 100 6 106 -21 13 -11 26 19 26 26 0 29 -2
22 -22z m66 3 c3 -8 -1 -12 -9 -9 -7 2 -15 10 -17 17 -3 8 1 12 9 9 7 -2 15
-10 17 -17z m-463 -120 c-8 -13 -35 -15 -35 -2 0 5 8 11 18 13 21 5 26 2 17
-11z m-605 -181 c-24 -15 -37 -11 -16 5 11 8 22 12 25 9 3 -3 -1 -9 -9 -14z
m65 -51 c11 -17 -1 -21 -15 -4 -8 9 -8 15 -2 15 6 0 14 -5 17 -11z m-29 -36
c-4 -4 -11 -1 -16 7 -16 25 -11 35 7 17 9 -9 13 -20 9 -24z m-26 -3 c7 -13 7
-20 1 -20 -6 0 -15 9 -21 20 -7 13 -7 20 -1 20 6 0 15 -9 21 -20z m-35 -10 c3
-5 1 -10 -4 -10 -6 0 -11 5 -11 10 0 6 2 10 4 10 3 0 8 -4 11 -10z"/>
<path d="M1510 2599 c0 -5 11 -8 25 -7 14 1 25 5 25 9 0 4 -11 7 -25 7 -14 0
-25 -4 -25 -9z"/>
<path d="M1347 263 c-4 -3 1 -15 10 -25 15 -17 15 -21 0 -53 -9 -19 -14 -41
-11 -49 14 -35 88 -31 99 5 4 13 0 35 -11 55 -16 29 -17 36 -5 43 23 14 2 31
-38 31 -21 0 -41 -3 -44 -7z m63 -13 c0 -5 -4 -10 -10 -10 -5 0 -10 5 -10 10
0 6 5 10 10 10 6 0 10 -4 10 -10z m6 -99 c-9 -14 -33 -14 -41 -1 -3 6 -3 20 0
31 l7 21 20 -20 c11 -11 17 -25 14 -31z"/>
<path d="M1512 258 c-14 -18 -17 -39 -8 -65 8 -24 15 -27 54 -23 24 2 29 -9
10 -28 -15 -15 -48 -16 -48 -2 0 6 -7 10 -17 10 -14 0 -14 -2 2 -20 23 -25 56
-26 86 -1 30 24 33 89 5 120 -21 23 -68 28 -84 9z m68 -34 c13 -34 13 -34 -15
-34 -29 0 -50 31 -33 48 19 19 38 14 48 -14z"/>
<path d="M1650 261 c0 -3 7 -15 15 -25 13 -17 12 -22 -5 -44 -11 -13 -20 -31
-20 -38 0 -36 71 -59 98 -32 17 17 15 58 -5 80 -15 17 -15 19 0 36 25 27 22
29 -33 29 -27 0 -50 -2 -50 -6z m70 -21 c0 -5 -4 -10 -9 -10 -6 0 -13 5 -16
10 -3 6 1 10 9 10 9 0 16 -4 16 -10z m-12 -52 c27 -27 3 -67 -28 -48 -8 5 -10
17 -6 34 7 29 16 32 34 14z"/>
<path d="M1267 246 c-12 -9 -14 -16 -8 -21 14 -8 14 -70 2 -94 -9 -15 -5 -18
25 -18 33 0 44 10 24 22 -5 3 -10 33 -10 66 0 62 -4 67 -33 45z"/>
<path d="M2740 189 c0 -5 5 -9 10 -9 6 0 10 -12 10 -26 0 -14 4 -23 10 -19 5
3 6 13 3 21 -3 9 0 19 6 24 9 5 4 9 -13 12 -14 3 -26 1 -26 -3z"/>
<path d="M2854 178 c-4 -13 -2 -24 5 -26 6 -2 9 -8 5 -13 -3 -5 0 -9 6 -9 11
0 10 59 -1 66 -4 2 -11 -6 -15 -18z"/>
<path d="M2810 190 c-7 -37 -7 -60 0 -60 5 0 11 6 13 13 4 10 6 10 6 0 1 -14
21 -19 21 -5 0 9 -39 59 -40 52z"/>
</g>
</svg>
